<?xml version="1.0" standalone="no"?>
<!DOCTYPE svg PUBLIC "-//W3C//DTD SVG 20010904//EN"
 "http://www.w3.org/TR/2001/REC-SVG-20010904/DTD/svg10.dtd">
<svg version="1.0" xmlns="http://www.w3.org/2000/svg"
 width="260.000000pt" height="260.000000pt" viewBox="0 0 260.000000 260.000000"
 preserveAspectRatio="xMidYMid meet">
<metadata>
Created by potrace 1.11, written by Peter Selinger 2001-2013
</metadata>
<g transform="translate(0.000000,260.000000) scale(0.100000,-0.100000)"
fill="#000000" stroke="none">
<path d="M497 1462 l-118 -119 122 -117 122 -117 34 33 c18 18 31 38 29 45 -4
11 125 13 670 13 l675 0 -58 -54 -58 -54 35 -36 c19 -20 38 -35 42 -34 4 2 59
55 123 118 l117 115 -122 119 -122 118 -34 -33 c-19 -18 -32 -39 -30 -46 4
-11 -125 -13 -671 -13 l-676 0 59 54 59 54 -34 36 c-19 20 -37 36 -41 36 -3 0
-58 -53 -123 -118z"/>
</g>
</svg>
